<svg xmlns="http://www.w3.org/2000/svg" width="633.38" height="635.06" viewBox="0 0 633.38 635.06">
  <metadata><?xpacket begin="﻿" id="W5M0MpCehiHzreSzNTczkc9d"?>
<x:xmpmeta xmlns:x="adobe:ns:meta/" x:xmptk="Adobe XMP Core 5.6-c138 79.159824, 2016/09/14-01:09:01        ">
   <rdf:RDF xmlns:rdf="http://www.w3.org/1999/02/22-rdf-syntax-ns#">
      <rdf:Description rdf:about=""/>
   </rdf:RDF>
</x:xmpmeta>





















<?xpacket end="w"?></metadata>
<defs>
    <style>
      .cls-1 {
        fill: #fff;
        fill-rule: evenodd;
      }
    </style>
  </defs>
  <path id="S_copy" data-name="S copy" class="cls-1" d="M3147.06,2069.58h1.22v-10.67l6.9,10.67h1.46v-12.6h-1.23v10.71l-6.89-10.71h-1.46v12.6Zm306.51,309.02v7.88h1.12v-6.68h5.04v5.32h1.12v-5.32h4.21v6.49h1.12v-7.69h-12.61Zm-608.16,9.6v-1.25l-10.65-3.31,10.65-3.28v-1.26l-12.6-3.9v1.24l11.27,3.33-11.27,3.31v1.14l11.27,3.35-11.27,3.31v1.26Zm307.01,290.95c-2.7,0-4.46,1.37-4.46,3.46,0,5,7.45,3.02,7.45,6.23,0,1.29-1.1,2.09-2.94,2.09a2.9,2.9,0,0,1-3.16-2.36l-1.1.39c0.29,1.86,2,3.08,4.26,3.08,2.49,0,4.16-1.28,4.16-3.2,0-4.41-7.41-2.5-7.41-6.23,0-1.42,1.26-2.34,3.2-2.34a3.5,3.5,0,0,1,3.55,3.11l1.22-.41A4.708,4.708,0,0,0,3152.42,2679.15Z" transform="translate(-2832.81 -2056.97)"/>
</svg>
